<svg viewBox="0 0 96 96" xmlns="http://www.w3.org/2000/svg" xmlns:xlink="http://www.w3.org/1999/xlink" id="Icons_Trophy" overflow="hidden"><path d="M72.9 46.5C69.4 50.1 66.1 52.4 58.9 53.2 60.8 51.3 63 49.4 64.9 47.1 65.7 46.2 67.2 44.2 67.2 44.1 68.9 41.3 69.9 38.1 69.9 34.6L69.9 21.6 76.9 21.6 76.9 36.8C77 37 77.2 42 72.9 46.5ZM23.2 46.5C18.8 42 19 37 19 36.8L19 21.5 26 21.5 26 34.5C26 38 27 41.2 28.7 44 28.7 44.1 30.2 46.2 31 47 33 49.3 35.1 51.2 37 53.1 30 52.3 26.6 50 23.2 46.5ZM83 36.5 83 15.5 70 15.5 70 8.5 48 8.5 26 8.5 26 15.5 13 15.5 13 36.4C13 37.4 13 44.3 18.7 50.4 24.2 56.2 30.9 59.2 42.6 59.4 43.5 60.9 44 62.6 44 64.4L44 77.4 39 77.4C36.8 77.4 35 79.2 35 81.4L30 81.4C27.8 81.4 26 83.2 26 85.4L26 87.4 70 87.4 70 85.4C70 83.2 68.2 81.4 66 81.4L61 81.4C61 79.2 59.2 77.4 57 77.4L52 77.4 52 64.5C52 62.7 52.5 61 53.4 59.5 65.1 59.3 71.8 56.2 77.3 50.5 83 44.5 83 37.5 83 36.5Z" fill="#00459D"/></svg>